<svg width="64" height="64" viewBox="0 0 64 64" fill="none" xmlns="http://www.w3.org/2000/svg">
  <defs>
    <linearGradient id="lustraGradient" x1="12" y1="8" x2="52" y2="56" gradientUnits="userSpaceOnUse">
      <stop stop-color="#8B5CF6" />
      <stop offset="1" stop-color="#EC4899" />
    </linearGradient>
    <linearGradient id="lustraGlow" x1="18" y1="12" x2="46" y2="48" gradientUnits="userSpaceOnUse">
      <stop stop-color="#F5F3FF" stop-opacity="0.85" />
      <stop offset="1" stop-color="#FDF2F8" stop-opacity="0.45" />
    </linearGradient>
  </defs>
  <rect x="6" y="6" width="52" height="52" rx="16" fill="url(#lustraGradient)" />
  <path d="M32 18C24.8203 18 19 23.8203 19 31C19 38.1797 24.8203 44 32 44C39.1797 44 45 38.1797 45 31C45 23.8203 39.1797 18 32 18ZM32 24C35.8659 24 39 27.1341 39 31C39 34.8659 35.8659 38 32 38C28.1341 38 25 34.8659 25 31C25 27.1341 28.1341 24 32 24Z" fill="url(#lustraGlow)" />
  <path d="M26 47.5C26.9384 47.8405 27.9251 48 28.9281 48H35.0719C36.0749 48 37.0616 47.8405 38 47.5C43.5228 45.4714 47.5 40.1279 47.5 34V28.75C47.5 27.5074 46.4926 26.5 45.25 26.5C44.0074 26.5 43 27.5074 43 28.75V34C43 38.9706 38.9706 43 34 43H30C25.0294 43 21 38.9706 21 34V28.75C21 27.5074 19.9926 26.5 18.75 26.5C17.5074 26.5 16.5 27.5074 16.5 28.75V34C16.5 40.1279 20.4772 45.4714 26 47.5Z" fill="white" fill-opacity="0.85" />
</svg>
